<svg xmlns="http://www.w3.org/2000/svg" xmlns:xlink="http://www.w3.org/1999/xlink" width="5135pt" height="260pt" viewBox="0.00 0.00 5135.38 260.00">
<g id="graph0" class="graph" transform="scale(1 1) rotate(0) translate(4 256)">
<title>G</title>
<polygon fill="white" stroke="none" points="-4,4 -4,-256 5131.38,-256 5131.38,4 -4,4"/>
<!-- A -->
<g id="node1" class="node">
<title>A</title>
<polygon fill="lightblue" stroke="black" points="2725.68,-252 2471.7,-252 2471.7,-216 2725.68,-216 2725.68,-252"/>
<text text-anchor="middle" x="2598.69" y="-229.8" font-family="Times,serif" font-size="14.00">Website tư vấn và quản lý hồ sơ pháp lý</text>
</g>
<!-- B -->
<g id="node2" class="node">
<title>B</title>
<polygon fill="lightblue" stroke="black" points="630.33,-180 505.05,-180 505.05,-144 630.33,-144 630.33,-180"/>
<text text-anchor="middle" x="567.69" y="-157.8" font-family="Times,serif" font-size="14.00">Quản lý tài khoản</text>
</g>
<!-- A&#45;&gt;B -->
<g id="edge1" class="edge">
<title>A-&gt;B</title>
<path fill="none" stroke="black" d="M2471.26,-228.61C2086.53,-215.35 944.67,-175.99 642.01,-165.56"/>
<polygon fill="black" stroke="black" points="642.38,-162.07 632.27,-165.23 642.14,-169.07 642.38,-162.07"/>
</g>
<!-- C -->
<g id="node8" class="node">
<title>C</title>
<polygon fill="lightblue" stroke="black" points="1876.4,-180 1700.98,-180 1700.98,-144 1876.4,-144 1876.4,-180"/>
<text text-anchor="middle" x="1788.69" y="-157.8" font-family="Times,serif" font-size="14.00">Tra cứu và quản lý pháp lý</text>
</g>
<!-- A&#45;&gt;C -->
<g id="edge7" class="edge">
<title>A-&gt;C</title>
<path fill="none" stroke="black" d="M2471.24,-221.99C2309.71,-208.03 2034.7,-184.26 1887.91,-171.57"/>
<polygon fill="black" stroke="black" points="1888.48,-168.11 1878.21,-170.74 1887.88,-175.08 1888.48,-168.11"/>
</g>
<!-- D -->
<g id="node24" class="node">
<title>D</title>
<polygon fill="lightblue" stroke="black" points="2658.99,-180 2538.39,-180 2538.39,-144 2658.99,-144 2658.99,-180"/>
<text text-anchor="middle" x="2598.69" y="-157.8" font-family="Times,serif" font-size="14.00">Tư vấn và hỗ trợ</text>
</g>
<!-- A&#45;&gt;D -->
<g id="edge23" class="edge">
<title>A-&gt;D</title>
<path fill="none" stroke="black" d="M2598.69,-215.7C2598.69,-208.41 2598.69,-199.73 2598.69,-191.54"/>
<polygon fill="black" stroke="black" points="2602.19,-191.62 2598.69,-181.62 2595.19,-191.62 2602.19,-191.62"/>
</g>
<!-- E -->
<g id="node27" class="node">
<title>E</title>
<polygon fill="lightblue" stroke="black" points="3121.07,-180 2964.31,-180 2964.31,-144 3121.07,-144 3121.07,-180"/>
<text text-anchor="middle" x="3042.69" y="-157.8" font-family="Times,serif" font-size="14.00">Lịch hẹn và thanh toán</text>
</g>
<!-- A&#45;&gt;E -->
<g id="edge26" class="edge">
<title>A-&gt;E</title>
<path fill="none" stroke="black" d="M2709.59,-215.52C2784.68,-203.68 2882.63,-188.24 2952.84,-177.17"/>
<polygon fill="black" stroke="black" points="2953.04,-180.68 2962.37,-175.66 2951.95,-173.76 2953.04,-180.68"/>
</g>
<!-- F -->
<g id="node32" class="node">
<title>F</title>
<polygon fill="lightblue" stroke="black" points="4221.07,-180 4036.31,-180 4036.31,-144 4221.07,-144 4221.07,-180"/>
<text text-anchor="middle" x="4128.69" y="-157.8" font-family="Times,serif" font-size="14.00">Quản trị hệ thống (Admin)</text>
</g>
<!-- A&#45;&gt;F -->
<g id="edge31" class="edge">
<title>A-&gt;F</title>
<path fill="none" stroke="black" d="M2726.18,-227.17C3022.44,-213.61 3752.73,-180.2 4024.55,-167.76"/>
<polygon fill="black" stroke="black" points="4024.63,-171.26 4034.46,-167.31 4024.31,-164.27 4024.63,-171.26"/>
</g>
<!-- B1 -->
<g id="node3" class="node">
<title>B1</title>
<polygon fill="lightblue" stroke="black" points="205.38,-108 0,-108 0,-72 205.38,-72 205.38,-108"/>
<text text-anchor="middle" x="102.69" y="-85.8" font-family="Times,serif" font-size="14.00">Đăng ký và xác minh người dùng</text>
</g>
<!-- B&#45;&gt;B1 -->
<g id="edge2" class="edge">
<title>B-&gt;B1</title>
<path fill="none" stroke="black" d="M504.56,-151.55C436.34,-141.34 324.1,-124.51 217.16,-108.37"/>
<polygon fill="black" stroke="black" points="217.73,-104.92 207.32,-106.89 216.69,-111.84 217.73,-104.92"/>
</g>
<!-- B2 -->
<g id="node4" class="node">
<title>B2</title>
<polygon fill="lightblue" stroke="black" points="366.08,-108 223.3,-108 223.3,-72 366.08,-72 366.08,-108"/>
<text text-anchor="middle" x="294.69" y="-85.8" font-family="Times,serif" font-size="14.00">Đăng nhập/Đăng xuất</text>
</g>
<!-- B&#45;&gt;B2 -->
<g id="edge3" class="edge">
<title>B-&gt;B2</title>
<path fill="none" stroke="black" d="M504.72,-144.85C465.69,-134.85 415.23,-121.91 373.55,-111.22"/>
<polygon fill="black" stroke="black" points="374.63,-107.88 364.07,-108.79 372.89,-114.66 374.63,-107.88"/>
</g>
<!-- B3 -->
<g id="node5" class="node">
<title>B3</title>
<polygon fill="lightblue" stroke="black" points="551.13,-108 384.25,-108 384.25,-72 551.13,-72 551.13,-108"/>
<text text-anchor="middle" x="467.69" y="-85.8" font-family="Times,serif" font-size="14.00">Quản lý thông tin cá nhân</text>
</g>
<!-- B&#45;&gt;B3 -->
<g id="edge4" class="edge">
<title>B-&gt;B3</title>
<path fill="none" stroke="black" d="M542.72,-143.52C530.33,-134.85 515.19,-124.25 501.76,-114.85"/>
<polygon fill="black" stroke="black" points="503.79,-112 493.59,-109.13 499.77,-117.73 503.79,-112"/>
</g>
<!-- B4 -->
<g id="node6" class="node">
<title>B4</title>
<polygon fill="lightblue" stroke="black" points="764.53,-108 568.86,-108 568.86,-72 764.53,-72 764.53,-108"/>
<text text-anchor="middle" x="666.69" y="-85.8" font-family="Times,serif" font-size="14.00">Quản lý tài khoản người dùng</text>
</g>
<!-- B&#45;&gt;B4 -->
<g id="edge5" class="edge">
<title>B-&gt;B4</title>
<path fill="none" stroke="black" d="M592.42,-143.52C604.68,-134.85 619.67,-124.25 632.96,-114.85"/>
<polygon fill="black" stroke="black" points="634.9,-117.77 641.04,-109.13 630.86,-112.05 634.9,-117.77"/>
</g>
<!-- B5 -->
<g id="node7" class="node">
<title>B5</title>
<polygon fill="lightblue" stroke="black" points="1036.49,-108 782.89,-108 782.89,-72 1036.49,-72 1036.49,-108"/>
<text text-anchor="middle" x="909.69" y="-85.8" font-family="Times,serif" font-size="14.00">Khóa tài khoản (quản lý lỗi đăng nhập)</text>
</g>
<!-- B&#45;&gt;B5 -->
<g id="edge6" class="edge">
<title>B-&gt;B5</title>
<path fill="none" stroke="black" d="M630.82,-148.08C681.95,-137.61 754.83,-122.7 813.27,-110.74"/>
<polygon fill="black" stroke="black" points="813.8,-114.2 822.89,-108.77 812.39,-107.34 813.8,-114.2"/>
</g>
<!-- C1 -->
<g id="node9" class="node">
<title>C1</title>
<polygon fill="lightblue" stroke="black" points="1230.4,-108 1054.98,-108 1054.98,-72 1230.4,-72 1230.4,-108"/>
<text text-anchor="middle" x="1142.69" y="-85.8" font-family="Times,serif" font-size="14.00">Tra cứu văn bản pháp luật</text>
</g>
<!-- C&#45;&gt;C1 -->
<g id="edge8" class="edge">
<title>C-&gt;C1</title>
<path fill="none" stroke="black" d="M1700.5,-154.6C1594.22,-146.4 1410.03,-130.69 1241.97,-108.25"/>
<polygon fill="black" stroke="black" points="1242.55,-104.79 1232.17,-106.93 1241.62,-111.73 1242.55,-104.79"/>
</g>
<!-- C2 -->
<g id="node10" class="node">
<title>C2</title>
<polygon fill="lightblue" stroke="black" points="1450.82,-108 1248.56,-108 1248.56,-72 1450.82,-72 1450.82,-108"/>
<text text-anchor="middle" x="1349.69" y="-85.8" font-family="Times,serif" font-size="14.00">Xem chi tiết văn bản pháp luật</text>
</g>
<!-- C&#45;&gt;C2 -->
<g id="edge9" class="edge">
<title>C-&gt;C2</title>
<path fill="none" stroke="black" d="M1700.64,-146.96C1632.08,-136.03 1536.42,-120.77 1462.28,-108.95"/>
<polygon fill="black" stroke="black" points="1462.97,-105.52 1452.54,-107.4 1461.86,-112.43 1462.97,-105.52"/>
</g>
<!-- C3 -->
<g id="node11" class="node">
<title>C3</title>
<polygon fill="lightblue" stroke="black" points="1616.61,-108 1468.77,-108 1468.77,-72 1616.61,-72 1616.61,-108"/>
<text text-anchor="middle" x="1542.69" y="-85.8" font-family="Times,serif" font-size="14.00">Quản lý hồ sơ pháp lý</text>
</g>
<!-- C&#45;&gt;C3 -->
<g id="edge10" class="edge">
<title>C-&gt;C3</title>
<path fill="none" stroke="black" d="M1727.25,-143.52C1693.07,-133.79 1650.35,-121.64 1614.62,-111.47"/>
<polygon fill="black" stroke="black" points="1615.81,-108.17 1605.23,-108.8 1613.89,-114.9 1615.81,-108.17"/>
</g>
<!-- C4 -->
<g id="node16" class="node">
<title>C4</title>
<polygon fill="lightblue" stroke="black" points="1763.69,-108 1635.69,-108 1635.69,-72 1763.69,-72 1763.69,-108"/>
<text text-anchor="middle" x="1699.69" y="-85.8" font-family="Times,serif" font-size="14.00">Quản lý hợp đồng</text>
</g>
<!-- C&#45;&gt;C4 -->
<g id="edge15" class="edge">
<title>C-&gt;C4</title>
<path fill="none" stroke="black" d="M1766.69,-143.7C1755.78,-135.11 1742.42,-124.61 1730.51,-115.24"/>
<polygon fill="black" stroke="black" points="1732.96,-112.71 1722.94,-109.28 1728.63,-118.22 1732.96,-112.71"/>
</g>
<!-- C5 -->
<g id="node21" class="node">
<title>C5</title>
<polygon fill="lightblue" stroke="black" points="1975.94,-108 1781.44,-108 1781.44,-72 1975.94,-72 1975.94,-108"/>
<text text-anchor="middle" x="1878.69" y="-85.8" font-family="Times,serif" font-size="14.00">AI soạn thảo văn bản pháp lý</text>
</g>
<!-- C&#45;&gt;C5 -->
<g id="edge20" class="edge">
<title>C-&gt;C5</title>
<path fill="none" stroke="black" d="M1810.94,-143.7C1821.97,-135.11 1835.48,-124.61 1847.53,-115.24"/>
<polygon fill="black" stroke="black" points="1849.45,-118.18 1855.19,-109.28 1845.15,-112.65 1849.45,-118.18"/>
</g>
<!-- C6 -->
<g id="node22" class="node">
<title>C6</title>
<polygon fill="lightblue" stroke="black" points="2255.39,-108 1994,-108 1994,-72 2255.39,-72 2255.39,-108"/>
<text text-anchor="middle" x="2124.69" y="-85.8" font-family="Times,serif" font-size="14.00">Nghiên cứu và so sánh văn bản pháp luật</text>
</g>
<!-- C&#45;&gt;C6 -->
<g id="edge21" class="edge">
<title>C-&gt;C6</title>
<path fill="none" stroke="black" d="M1872.61,-143.52C1920.41,-133.56 1980.44,-121.05 2029.93,-110.74"/>
<polygon fill="black" stroke="black" points="2030.41,-114.22 2039.49,-108.75 2028.98,-107.36 2030.41,-114.22"/>
</g>
<!-- C7 -->
<g id="node23" class="node">
<title>C7</title>
<polygon fill="lightblue" stroke="black" points="2417.86,-108 2273.53,-108 2273.53,-72 2417.86,-72 2417.86,-108"/>
<text text-anchor="middle" x="2345.69" y="-85.8" font-family="Times,serif" font-size="14.00">Tính toán phí pháp lý</text>
</g>
<!-- C&#45;&gt;C7 -->
<g id="edge22" class="edge">
<title>C-&gt;C7</title>
<path fill="none" stroke="black" d="M1876.76,-153.74C1970.04,-145.48 2121.78,-130.4 2261.97,-108.35"/>
<polygon fill="black" stroke="black" points="2262.51,-111.81 2271.84,-106.78 2261.41,-104.9 2262.51,-111.81"/>
</g>
<!-- C3a -->
<g id="node12" class="node">
<title>C3a</title>
<polygon fill="lightblue" stroke="black" points="1117.33,-36 1020.05,-36 1020.05,0 1117.33,0 1117.33,-36"/>
<text text-anchor="middle" x="1068.69" y="-13.8" font-family="Times,serif" font-size="14.00">Tải lên hồ sơ</text>
</g>
<!-- C3&#45;&gt;C3a -->
<g id="edge11" class="edge">
<title>C3-&gt;C3a</title>
<path fill="none" stroke="black" d="M1468.54,-73.45C1465.56,-72.94 1462.6,-72.45 1459.69,-72 1316.2,-49.6 1274.7,-64.29 1128.74,-36.19"/>
<polygon fill="black" stroke="black" points="1129.56,-32.78 1119.07,-34.29 1128.21,-39.65 1129.56,-32.78"/>
</g>
<!-- C3b -->
<g id="node13" class="node">
<title>C3b</title>
<polygon fill="lightblue" stroke="black" points="1312,-36 1135.39,-36 1135.39,0 1312,0 1312,-36"/>
<text text-anchor="middle" x="1223.69" y="-13.8" font-family="Times,serif" font-size="14.00">Lưu trữ và tìm kiếm hồ sơ</text>
</g>
<!-- C3&#45;&gt;C3b -->
<g id="edge12" class="edge">
<title>C3-&gt;C3b</title>
<path fill="none" stroke="black" d="M1468.3,-72.68C1422.36,-62.59 1363.09,-49.59 1314.4,-38.9"/>
<polygon fill="black" stroke="black" points="1315.22,-35.5 1304.7,-36.78 1313.72,-42.34 1315.22,-35.5"/>
</g>
<!-- C3c -->
<g id="node14" class="node">
<title>C3c</title>
<polygon fill="lightblue" stroke="black" points="1435.02,-36 1330.36,-36 1330.36,0 1435.02,0 1435.02,-36"/>
<text text-anchor="middle" x="1382.69" y="-13.8" font-family="Times,serif" font-size="14.00">Sửa/Xóa hồ sơ</text>
</g>
<!-- C3&#45;&gt;C3c -->
<g id="edge13" class="edge">
<title>C3-&gt;C3c</title>
<path fill="none" stroke="black" d="M1502.73,-71.52C1481.55,-62.25 1455.34,-50.78 1432.81,-40.93"/>
<polygon fill="black" stroke="black" points="1434.37,-37.79 1423.81,-36.99 1431.57,-44.2 1434.37,-37.79"/>
</g>
<!-- C3d -->
<g id="node15" class="node">
<title>C3d</title>
<polygon fill="lightblue" stroke="black" points="1630.19,-36 1453.19,-36 1453.19,0 1630.19,0 1630.19,-36"/>
<text text-anchor="middle" x="1541.69" y="-13.8" font-family="Times,serif" font-size="14.00">Phân quyền truy cập hồ sơ</text>
</g>
<!-- C3&#45;&gt;C3d -->
<g id="edge14" class="edge">
<title>C3-&gt;C3d</title>
<path fill="none" stroke="black" d="M1542.44,-71.7C1542.34,-64.41 1542.22,-55.73 1542.1,-47.54"/>
<polygon fill="black" stroke="black" points="1545.6,-47.57 1541.96,-37.62 1538.6,-47.67 1545.6,-47.57"/>
</g>
<!-- C4a -->
<g id="node17" class="node">
<title>C4a</title>
<polygon fill="lightblue" stroke="black" points="1753.22,-36 1648.17,-36 1648.17,0 1753.22,0 1753.22,-36"/>
<text text-anchor="middle" x="1700.69" y="-13.8" font-family="Times,serif" font-size="14.00">Tạo hợp đồng</text>
</g>
<!-- C4&#45;&gt;C4a -->
<g id="edge16" class="edge">
<title>C4-&gt;C4a</title>
<path fill="none" stroke="black" d="M1699.94,-71.7C1700.04,-64.41 1700.17,-55.73 1700.28,-47.54"/>
<polygon fill="black" stroke="black" points="1703.78,-47.67 1700.43,-37.62 1696.78,-47.57 1703.78,-47.67"/>
</g>
<!-- C4b -->
<g id="node18" class="node">
<title>C4b</title>
<polygon fill="lightblue" stroke="black" points="1877.8,-36 1771.58,-36 1771.58,0 1877.8,0 1877.8,-36"/>
<text text-anchor="middle" x="1824.69" y="-13.8" font-family="Times,serif" font-size="14.00">Xem hợp đồng</text>
</g>
<!-- C4&#45;&gt;C4b -->
<g id="edge17" class="edge">
<title>C4-&gt;C4b</title>
<path fill="none" stroke="black" d="M1730.91,-71.52C1746.99,-62.51 1766.79,-51.42 1784.05,-41.76"/>
<polygon fill="black" stroke="black" points="1785.53,-44.94 1792.55,-37 1782.11,-38.83 1785.53,-44.94"/>
</g>
<!-- C4c -->
<g id="node19" class="node">
<title>C4c</title>
<polygon fill="lightblue" stroke="black" points="2033.56,-36 1895.83,-36 1895.83,0 2033.56,0 2033.56,-36"/>
<text text-anchor="middle" x="1964.69" y="-13.8" font-family="Times,serif" font-size="14.00">Cập nhật hợp đồng</text>
</g>
<!-- C4&#45;&gt;C4c -->
<g id="edge18" class="edge">
<title>C4-&gt;C4c</title>
<path fill="none" stroke="black" d="M1764.18,-71.97C1801.35,-62.15 1848.32,-49.74 1887.45,-39.4"/>
<polygon fill="black" stroke="black" points="1888.29,-42.8 1897.07,-36.86 1886.5,-36.03 1888.29,-42.8"/>
</g>
<!-- C4d -->
<g id="node20" class="node">
<title>C4d</title>
<polygon fill="lightblue" stroke="black" points="2153.85,-36 2051.53,-36 2051.53,0 2153.85,0 2153.85,-36"/>
<text text-anchor="middle" x="2102.69" y="-13.8" font-family="Times,serif" font-size="14.00">Xóa hợp đồng</text>
</g>
<!-- C4&#45;&gt;C4d -->
<g id="edge19" class="edge">
<title>C4-&gt;C4d</title>
<path fill="none" stroke="black" d="M1764.11,-73.64C1767,-73.07 1769.88,-72.51 1772.69,-72 1888.18,-50.9 1922.11,-59.97 2039.82,-36.43"/>
<polygon fill="black" stroke="black" points="2040.52,-39.86 2049.61,-34.43 2039.12,-33 2040.52,-39.86"/>
</g>
<!-- D1 -->
<g id="node25" class="node">
<title>D1</title>
<polygon fill="lightblue" stroke="black" points="2585.38,-108 2436.01,-108 2436.01,-72 2585.38,-72 2585.38,-108"/>
<text text-anchor="middle" x="2510.69" y="-85.8" font-family="Times,serif" font-size="14.00">Tư vấn qua Chatbot AI</text>
</g>
<!-- D&#45;&gt;D1 -->
<g id="edge24" class="edge">
<title>D-&gt;D1</title>
<path fill="none" stroke="black" d="M2576.94,-143.7C2566.26,-135.2 2553.2,-124.81 2541.51,-115.51"/>
<polygon fill="black" stroke="black" points="2543.69,-112.78 2533.68,-109.29 2539.33,-118.25 2543.69,-112.78"/>
</g>
<!-- D2 -->
<g id="node26" class="node">
<title>D2</title>
<polygon fill="lightblue" stroke="black" points="2772.49,-108 2602.89,-108 2602.89,-72 2772.49,-72 2772.49,-108"/>
<text text-anchor="middle" x="2687.69" y="-85.8" font-family="Times,serif" font-size="14.00">Chat trực tiếp với luật sư</text>
</g>
<!-- D&#45;&gt;D2 -->
<g id="edge25" class="edge">
<title>D-&gt;D2</title>
<path fill="none" stroke="black" d="M2620.69,-143.7C2631.6,-135.11 2644.96,-124.61 2656.87,-115.24"/>
<polygon fill="black" stroke="black" points="2658.75,-118.22 2664.45,-109.28 2654.42,-112.71 2658.75,-118.22"/>
</g>
<!-- E1 -->
<g id="node28" class="node">
<title>E1</title>
<polygon fill="lightblue" stroke="black" points="2956.75,-108 2790.64,-108 2790.64,-72 2956.75,-72 2956.75,-108"/>
<text text-anchor="middle" x="2873.69" y="-85.8" font-family="Times,serif" font-size="14.00">Đặt lịch hẹn với luật sư</text>
</g>
<!-- E&#45;&gt;E1 -->
<g id="edge27" class="edge">
<title>E-&gt;E1</title>
<path fill="none" stroke="black" d="M3000.48,-143.52C2977.91,-134.17 2949.92,-122.57 2925.99,-112.66"/>
<polygon fill="black" stroke="black" points="2927.63,-109.55 2917.05,-108.96 2924.95,-116.02 2927.63,-109.55"/>
</g>
<!-- E2 -->
<g id="node29" class="node">
<title>E2</title>
<polygon fill="lightblue" stroke="black" points="3110.38,-108 2975.01,-108 2975.01,-72 3110.38,-72 3110.38,-108"/>
<text text-anchor="middle" x="3042.69" y="-85.8" font-family="Times,serif" font-size="14.00">Thanh toán dịch vụ</text>
</g>
<!-- E&#45;&gt;E2 -->
<g id="edge28" class="edge">
<title>E-&gt;E2</title>
<path fill="none" stroke="black" d="M3042.69,-143.7C3042.69,-136.41 3042.69,-127.73 3042.69,-119.54"/>
<polygon fill="black" stroke="black" points="3046.19,-119.62 3042.69,-109.62 3039.19,-119.62 3046.19,-119.62"/>
</g>
<!-- E3 -->
<g id="node30" class="node">
<title>E3</title>
<polygon fill="lightblue" stroke="black" points="3310.53,-108 3128.86,-108 3128.86,-72 3310.53,-72 3310.53,-108"/>
<text text-anchor="middle" x="3219.69" y="-85.8" font-family="Times,serif" font-size="14.00">Quản lý thông tin ngân hàng</text>
</g>
<!-- E&#45;&gt;E3 -->
<g id="edge29" class="edge">
<title>E-&gt;E3</title>
<path fill="none" stroke="black" d="M3086.9,-143.52C3110.64,-134.13 3140.12,-122.47 3165.26,-112.53"/>
<polygon fill="black" stroke="black" points="3166.32,-115.87 3174.33,-108.94 3163.75,-109.36 3166.32,-115.87"/>
</g>
<!-- E4 -->
<g id="node31" class="node">
<title>E4</title>
<polygon fill="lightblue" stroke="black" points="3512.88,-108 3328.51,-108 3328.51,-72 3512.88,-72 3512.88,-108"/>
<text text-anchor="middle" x="3420.69" y="-85.8" font-family="Times,serif" font-size="14.00">Thống kê chi phí và báo cáo</text>
</g>
<!-- E&#45;&gt;E4 -->
<g id="edge30" class="edge">
<title>E-&gt;E4</title>
<path fill="none" stroke="black" d="M3121.47,-146.41C3178.22,-135.9 3255.33,-121.62 3317.07,-110.19"/>
<polygon fill="black" stroke="black" points="3317.33,-113.7 3326.52,-108.44 3316.05,-106.82 3317.33,-113.7"/>
</g>
<!-- F1 -->
<g id="node33" class="node">
<title>F1</title>
<polygon fill="lightblue" stroke="black" points="3688.28,-108 3531.1,-108 3531.1,-72 3688.28,-72 3688.28,-108"/>
<text text-anchor="middle" x="3609.69" y="-85.8" font-family="Times,serif" font-size="14.00">Phân quyền người dùng</text>
</g>
<!-- F&#45;&gt;F1 -->
<g id="edge32" class="edge">
<title>F-&gt;F1</title>
<path fill="none" stroke="black" d="M4036.15,-151.57C3951.15,-142.46 3821.44,-127.46 3699.74,-108.43"/>
<polygon fill="black" stroke="black" points="3700.29,-104.97 3689.86,-106.87 3699.19,-111.88 3700.29,-104.97"/>
</g>
<!-- F2 -->
<g id="node34" class="node">
<title>F2</title>
<polygon fill="lightblue" stroke="black" points="3893.44,-108 3705.94,-108 3705.94,-72 3893.44,-72 3893.44,-108"/>
<text text-anchor="middle" x="3799.69" y="-85.8" font-family="Times,serif" font-size="14.00">Cập nhật văn bản pháp luật</text>
</g>
<!-- F&#45;&gt;F2 -->
<g id="edge33" class="edge">
<title>F-&gt;F2</title>
<path fill="none" stroke="black" d="M4046.52,-143.52C3999.82,-133.58 3941.18,-121.1 3892.78,-110.81"/>
<polygon fill="black" stroke="black" points="3893.66,-107.42 3883.15,-108.76 3892.2,-114.26 3893.66,-107.42"/>
</g>
<!-- F3 -->
<g id="node35" class="node">
<title>F3</title>
<polygon fill="lightblue" stroke="black" points="4021.56,-108 3911.83,-108 3911.83,-72 4021.56,-72 4021.56,-108"/>
<text text-anchor="middle" x="3966.69" y="-85.8" font-family="Times,serif" font-size="14.00">Quản lý luật sư</text>
</g>
<!-- F&#45;&gt;F3 -->
<g id="edge34" class="edge">
<title>F-&gt;F3</title>
<path fill="none" stroke="black" d="M4088.23,-143.52C4066.79,-134.25 4040.25,-122.78 4017.44,-112.93"/>
<polygon fill="black" stroke="black" points="4018.88,-109.74 4008.31,-108.98 4016.1,-116.16 4018.88,-109.74"/>
</g>
<!-- F4 -->
<g id="node36" class="node">
<title>F4</title>
<polygon fill="lightblue" stroke="black" points="4217.38,-108 4040,-108 4040,-72 4217.38,-72 4217.38,-108"/>
<text text-anchor="middle" x="4128.69" y="-85.8" font-family="Times,serif" font-size="14.00">Quản lý lịch trống luật sư</text>
</g>
<!-- F&#45;&gt;F4 -->
<g id="edge35" class="edge">
<title>F-&gt;F4</title>
<path fill="none" stroke="black" d="M4128.69,-143.7C4128.69,-136.41 4128.69,-127.73 4128.69,-119.54"/>
<polygon fill="black" stroke="black" points="4132.19,-119.62 4128.69,-109.62 4125.19,-119.62 4132.19,-119.62"/>
</g>
<!-- F5 -->
<g id="node37" class="node">
<title>F5</title>
<polygon fill="lightblue" stroke="black" points="4484.15,-108 4235.23,-108 4235.23,-72 4484.15,-72 4484.15,-108"/>
<text text-anchor="middle" x="4359.69" y="-85.8" font-family="Times,serif" font-size="14.00">Quản lý giao dịch và báo cáo thống kê</text>
</g>
<!-- F&#45;&gt;F5 -->
<g id="edge36" class="edge">
<title>F-&gt;F5</title>
<path fill="none" stroke="black" d="M4186.39,-143.52C4218.34,-133.83 4258.25,-121.74 4291.71,-111.6"/>
<polygon fill="black" stroke="black" points="4292.33,-115.07 4300.88,-108.82 4290.3,-108.37 4292.33,-115.07"/>
</g>
<!-- F6 -->
<g id="node38" class="node">
<title>F6</title>
<polygon fill="lightblue" stroke="black" points="4651.39,-108 4502,-108 4502,-72 4651.39,-72 4651.39,-108"/>
<text text-anchor="middle" x="4576.69" y="-85.8" font-family="Times,serif" font-size="14.00">Quản lý văn bản mẫu</text>
</g>
<!-- F&#45;&gt;F6 -->
<g id="edge37" class="edge">
<title>F-&gt;F6</title>
<path fill="none" stroke="black" d="M4221.3,-148.95C4292.26,-139.38 4392.88,-125.11 4490.37,-108.35"/>
<polygon fill="black" stroke="black" points="4490.88,-111.82 4500.13,-106.66 4489.68,-104.92 4490.88,-111.82"/>
</g>
<!-- F7 -->
<g id="node39" class="node">
<title>F7</title>
<polygon fill="lightblue" stroke="black" points="4932.15,-108 4669.23,-108 4669.23,-72 4932.15,-72 4932.15,-108"/>
<text text-anchor="middle" x="4800.69" y="-85.8" font-family="Times,serif" font-size="14.00">Quản lý dữ liệu thu thập (Scraped URLs)</text>
</g>
<!-- F&#45;&gt;F7 -->
<g id="edge38" class="edge">
<title>F-&gt;F7</title>
<path fill="none" stroke="black" d="M4221.5,-152.37C4325.22,-142.58 4498.5,-125.81 4657.39,-108.35"/>
<polygon fill="black" stroke="black" points="4657.74,-111.84 4667.3,-107.26 4656.97,-104.88 4657.74,-111.84"/>
</g>
<!-- F8 -->
<g id="node40" class="node">
<title>F8</title>
<polygon fill="lightblue" stroke="black" points="5127.38,-108 4950,-108 4950,-72 5127.38,-72 5127.38,-108"/>
<text text-anchor="middle" x="5038.69" y="-85.8" font-family="Times,serif" font-size="14.00">Lưu trữ nhật ký hoạt động</text>
</g>
<!-- F&#45;&gt;F8 -->
<g id="edge39" class="edge">
<title>F-&gt;F8</title>
<path fill="none" stroke="black" d="M4221.54,-158.16C4370.55,-152.89 4672.46,-139.28 4938.13,-108.23"/>
<polygon fill="black" stroke="black" points="4938.53,-111.7 4948.05,-107.06 4937.71,-104.75 4938.53,-111.7"/>
</g>
</g>
</svg>